<svg id="linkedin" xmlns="http://www.w3.org/2000/svg" width="219" height="44" viewBox="0 0 219 44">
  <rect id="Rectangle_2" data-name="Rectangle 2" width="219" height="44" rx="4" fill="#0077b5"/>
  <text id="Share_with_Linkedin" data-name="Share with Linkedin" transform="translate(48 28)" fill="#fff" font-size="15" font-family="OpenSans-Regular, Open Sans" style="mix-blend-mode: lighten;isolation: isolate"><tspan x="0" y="0">Share with Linkedin</tspan></text>
  <g id="Group_1" data-name="Group 1" transform="translate(-27 -72)">
    <g id="linkedin-2" data-name="linkedin" transform="translate(44 87)">
      <path id="Path_1" data-name="Path 1" d="M17.656,17.285h0v-5.2c0-2.546-.548-4.507-3.524-4.507A3.09,3.09,0,0,0,11.352,9.1h-.041V7.812H8.489v9.473h2.938V12.594c0-1.235.234-2.429,1.764-2.429,1.507,0,1.529,1.409,1.529,2.509v4.612Z" transform="translate(-3.47 -3.096)" fill="#fff"/>
      <path id="Path_2" data-name="Path 2" d="M.4,7.977H3.338V17.45H.4Z" transform="translate(-0.162 -3.261)" fill="#fff"/>
      <path id="Path_3" data-name="Path 3" d="M1.7,0a1.712,1.712,0,1,0,1.7,1.7A1.7,1.7,0,0,0,1.7,0Z" fill="#fff"/>
    </g>
  </g>
</svg>
