<svg id="reddit" xmlns="http://www.w3.org/2000/svg" width="219" height="44" viewBox="0 0 219 44">
  <g id="Group_8" data-name="Group 8" transform="translate(-29 -181)">
    <rect id="Rectangle_4" data-name="Rectangle 4" width="219" height="44" rx="4" transform="translate(29 181)" fill="#ff4500"/>
    <text id="Share_with_Reddit" data-name="Share with Reddit" transform="translate(77 209)" fill="#fff" font-size="15" font-family="OpenSans-Regular, Open Sans" style="mix-blend-mode: lighten;isolation: isolate"><tspan x="0" y="0">Share with Reddit</tspan></text>
    <g id="Group_3" data-name="Group 3" transform="translate(65.923 17.899)">
      <path id="Path_4" data-name="Path 4" d="M17.841,8.09a1.95,1.95,0,0,0-3.307-1.4A9.554,9.554,0,0,0,9.313,5.029L10.2.844l2.905.619A1.4,1.4,0,1,0,13.248.78L10,.089a.348.348,0,0,0-.262.048.344.344,0,0,0-.15.22S8.616,5,8.616,5.027A9.573,9.573,0,0,0,3.3,6.681,1.951,1.951,0,1,0,1.154,9.87a3.929,3.929,0,0,0-.045.592c0,3,3.5,5.438,7.81,5.438s7.81-2.434,7.81-5.438a3.883,3.883,0,0,0-.045-.586A1.961,1.961,0,0,0,17.841,8.09" transform="translate(-21.923 177.1)" fill="#fff"/>
      <g id="Group_2" data-name="Group 2" transform="translate(-17.471 185.189)">
        <path id="Path_5" data-name="Path 5" d="M305.3,234.927a1.4,1.4,0,1,1,1.4-1.4,1.4,1.4,0,0,1-1.4,1.4" transform="translate(-297.773 -232.137)" fill="#ff4500"/>
        <path id="Path_6" data-name="Path 6" d="M164.585,360.8a5.862,5.862,0,0,1-6.624,0,.362.362,0,1,1,.512-.512,5.225,5.225,0,0,0,5.6,0,.361.361,0,0,1,.511,0,.365.365,0,0,1,0,.512" transform="translate(-156.806 -355.716)" fill="#ff4500"/>
        <path id="Path_7" data-name="Path 7" d="M127.789,233.536a1.4,1.4,0,1,1,1.4,1.4,1.4,1.4,0,0,1-1.4-1.4" transform="translate(-127.789 -232.141)" fill="#ff4500"/>
      </g>
    </g>
  </g>
</svg>
