<svg id="tumblr" xmlns="http://www.w3.org/2000/svg" width="219" height="44" viewBox="0 0 219 44">
  <g id="Group_4" data-name="Group 4" transform="translate(-257 -22)">
    <rect id="Rectangle_6" data-name="Rectangle 6" width="219" height="44" rx="4" transform="translate(257 22)" fill="#33506c"/>
    <text id="Share_with_Tumblr" data-name="Share with Tumblr" transform="translate(305 50)" fill="#fff" font-size="15" font-family="OpenSans-Regular, Open Sans" style="mix-blend-mode: lighten;isolation: isolate"><tspan x="0" y="0">Share with Tumblr</tspan></text>
    <path id="tumblr-2" data-name="tumblr" d="M14.291,14.995l-.78-2.273A3.949,3.949,0,0,1,12.205,13h-.06a1.4,1.4,0,0,1-1.489-1.574V6.469h3.253V4.058H10.668V0H8.3a.127.127,0,0,0-.117.119A4.87,4.87,0,0,1,5,4.412V6.469H6.63v5.2a4.361,4.361,0,0,0,4.744,4.255h.113A4.38,4.38,0,0,0,14.291,14.995Z" transform="translate(271 36)" fill="#fff"/>
  </g>
</svg>
